<svg width="170" height="48" viewBox="0 0 170 48" fill="none" xmlns="http://www.w3.org/2000/svg">
<mask id="path-1-outside-1_1_6" maskUnits="userSpaceOnUse" x="3" y="3" width="91" height="41" fill="black">
<rect fill="white" x="3" y="3" width="91" height="41"/>
<path d="M21.7487 8.00935C24.8016 8.05296 27.5493 8.70716 29.9917 9.97196L28.8141 15.5327L28.2907 15.729C26.2409 14.2461 23.9512 13.5047 21.4216 13.5047C16.2315 13.5047 13.6365 16.9283 13.6365 23.7757C13.6365 31.1464 16.297 34.8536 21.6178 34.8972C24.2347 34.8972 26.6552 34.1776 28.8795 32.7383L29.4683 33.0654L28.9449 38.6916C26.459 39.8255 23.8421 40.4143 21.0945 40.4579C16.3842 40.4579 12.7861 39.0841 10.3001 36.3364C7.85771 33.5888 6.63653 29.6199 6.63653 24.4299C6.63653 19.2399 7.94494 15.2056 10.5618 12.3271C13.1786 9.4486 16.9076 8.00935 21.7487 8.00935ZM36.9669 6.04673C38.0136 6.04673 38.8205 6.35202 39.3874 6.96262C39.9544 7.52959 40.2379 8.35826 40.2379 9.4486C40.2379 10.4953 39.9326 11.3458 39.322 12C38.7114 12.6542 37.861 12.9813 36.7706 12.9813C35.7239 12.9813 34.8952 12.6978 34.2846 12.1308C33.7177 11.5202 33.4342 10.6916 33.4342 9.64486C33.4342 8.59813 33.7613 7.74766 34.4155 7.09346C35.0697 6.39564 35.9202 6.04673 36.9669 6.04673ZM40.0416 40H33.4996L33.8267 30.5794L33.565 17.6262L40.1071 17.1028L39.6491 29.9907L40.0416 40ZM59.8726 25.8037C59.8726 23.405 58.8477 22.2056 56.7979 22.2056C55.315 22.2056 53.7449 22.9034 52.0876 24.2991V29.9907L52.4147 40H45.8726L46.1997 30.5794L45.9381 17.6262L52.153 17.1028V20.4393H52.4801C54.3555 18.7819 56.3181 17.6044 58.368 16.9065C60.8539 16.9065 62.7293 17.4735 63.9941 18.6075C65.3025 19.7414 65.9349 21.3551 65.8913 23.4486L65.7605 29.9907L66.0222 40H59.4801L59.8726 25.8037ZM76.1581 29.4673C76.4198 33.6106 78.4261 35.6822 82.1768 35.6822C84.3139 35.6822 86.5164 35.0717 88.7843 33.8505L89.3077 34.243L88.4572 39.0187C86.1893 39.9782 83.8996 40.4798 81.588 40.5234C77.9681 40.5234 75.155 39.4766 73.1488 37.3832C71.1426 35.2897 70.1394 32.4112 70.1394 28.7477C70.1394 25.0405 71.1426 22.1402 73.1488 20.0467C75.1986 17.9097 77.7937 16.8411 80.9338 16.8411C84.074 16.8411 86.4074 17.648 87.9338 19.2617C89.5039 20.8318 90.289 23.0125 90.289 25.8037C90.289 26.676 90.2236 27.5701 90.0927 28.486L89.1114 29.4019L76.1581 29.4673ZM81.1301 21.0935C79.8653 21.0935 78.7968 21.5078 77.9245 22.3364C77.0958 23.1651 76.5507 24.3427 76.289 25.8692L84.532 25.6075L84.6628 25.0841C84.6192 22.4237 83.4416 21.0935 81.1301 21.0935Z"/>
</mask>
<path d="M21.7487 8.00935C24.8016 8.05296 27.5493 8.70716 29.9917 9.97196L28.8141 15.5327L28.2907 15.729C26.2409 14.2461 23.9512 13.5047 21.4216 13.5047C16.2315 13.5047 13.6365 16.9283 13.6365 23.7757C13.6365 31.1464 16.297 34.8536 21.6178 34.8972C24.2347 34.8972 26.6552 34.1776 28.8795 32.7383L29.4683 33.0654L28.9449 38.6916C26.459 39.8255 23.8421 40.4143 21.0945 40.4579C16.3842 40.4579 12.7861 39.0841 10.3001 36.3364C7.85771 33.5888 6.63653 29.6199 6.63653 24.4299C6.63653 19.2399 7.94494 15.2056 10.5618 12.3271C13.1786 9.4486 16.9076 8.00935 21.7487 8.00935ZM36.9669 6.04673C38.0136 6.04673 38.8205 6.35202 39.3874 6.96262C39.9544 7.52959 40.2379 8.35826 40.2379 9.4486C40.2379 10.4953 39.9326 11.3458 39.322 12C38.7114 12.6542 37.861 12.9813 36.7706 12.9813C35.7239 12.9813 34.8952 12.6978 34.2846 12.1308C33.7177 11.5202 33.4342 10.6916 33.4342 9.64486C33.4342 8.59813 33.7613 7.74766 34.4155 7.09346C35.0697 6.39564 35.9202 6.04673 36.9669 6.04673ZM40.0416 40H33.4996L33.8267 30.5794L33.565 17.6262L40.1071 17.1028L39.6491 29.9907L40.0416 40ZM59.8726 25.8037C59.8726 23.405 58.8477 22.2056 56.7979 22.2056C55.315 22.2056 53.7449 22.9034 52.0876 24.2991V29.9907L52.4147 40H45.8726L46.1997 30.5794L45.9381 17.6262L52.153 17.1028V20.4393H52.4801C54.3555 18.7819 56.3181 17.6044 58.368 16.9065C60.8539 16.9065 62.7293 17.4735 63.9941 18.6075C65.3025 19.7414 65.9349 21.3551 65.8913 23.4486L65.7605 29.9907L66.0222 40H59.4801L59.8726 25.8037ZM76.1581 29.4673C76.4198 33.6106 78.4261 35.6822 82.1768 35.6822C84.3139 35.6822 86.5164 35.0717 88.7843 33.8505L89.3077 34.243L88.4572 39.0187C86.1893 39.9782 83.8996 40.4798 81.588 40.5234C77.9681 40.5234 75.155 39.4766 73.1488 37.3832C71.1426 35.2897 70.1394 32.4112 70.1394 28.7477C70.1394 25.0405 71.1426 22.1402 73.1488 20.0467C75.1986 17.9097 77.7937 16.8411 80.9338 16.8411C84.074 16.8411 86.4074 17.648 87.9338 19.2617C89.5039 20.8318 90.289 23.0125 90.289 25.8037C90.289 26.676 90.2236 27.5701 90.0927 28.486L89.1114 29.4019L76.1581 29.4673ZM81.1301 21.0935C79.8653 21.0935 78.7968 21.5078 77.9245 22.3364C77.0958 23.1651 76.5507 24.3427 76.289 25.8692L84.532 25.6075L84.6628 25.0841C84.6192 22.4237 83.4416 21.0935 81.1301 21.0935Z" fill="#F1E149"/>
<path d="M21.7487 8.00935L21.7915 5.00965L21.7701 5.00935H21.7487V8.00935ZM29.9917 9.97196L32.9266 10.5935L33.3999 8.35852L31.3712 7.30798L29.9917 9.97196ZM28.8141 15.5327L29.8675 18.3417L31.4081 17.7639L31.749 16.1542L28.8141 15.5327ZM28.2907 15.729L26.5324 18.1596L27.8367 19.1032L29.3441 18.538L28.2907 15.729ZM21.6178 34.8972L21.5932 37.8971L21.6055 37.8972H21.6178V34.8972ZM28.8795 32.7383L30.3364 30.1158L28.762 29.2411L27.2498 30.2196L28.8795 32.7383ZM29.4683 33.0654L32.4554 33.3433L32.6368 31.3938L30.9252 30.4429L29.4683 33.0654ZM28.9449 38.6916L30.19 41.421L31.7711 40.6998L31.932 38.9695L28.9449 38.6916ZM21.0945 40.4579V43.4579H21.1183L21.1421 43.4576L21.0945 40.4579ZM10.3001 36.3364L8.05785 38.3295L8.06662 38.3394L8.07547 38.3492L10.3001 36.3364ZM10.5618 12.3271L8.34194 10.3091L10.5618 12.3271ZM21.7058 11.009C24.3451 11.0467 26.627 11.6079 28.6121 12.6359L31.3712 7.30798C28.4716 5.80639 25.2581 5.05917 21.7915 5.00965L21.7058 11.009ZM27.0568 9.35045L25.8792 14.9112L31.749 16.1542L32.9266 10.5935L27.0568 9.35045ZM27.7607 12.7237L27.2374 12.92L29.3441 18.538L29.8675 18.3417L27.7607 12.7237ZM30.0491 13.2983C27.4877 11.4454 24.5827 10.5047 21.4216 10.5047V16.5047C23.3196 16.5047 24.994 17.0468 26.5324 18.1596L30.0491 13.2983ZM21.4216 10.5047C18.1064 10.5047 15.1769 11.6415 13.192 14.2603C11.326 16.7221 10.6365 20.0586 10.6365 23.7757H16.6365C16.6365 20.6455 17.2446 18.8464 17.9736 17.8846C18.5837 17.0797 19.5467 16.5047 21.4216 16.5047V10.5047ZM10.6365 23.7757C10.6365 27.7342 11.3353 31.2424 13.1945 33.8332C15.1812 36.6015 18.1564 37.8689 21.5932 37.8971L21.6424 31.8973C19.7584 31.8819 18.743 31.2739 18.0692 30.335C17.268 29.2186 16.6365 27.1879 16.6365 23.7757H10.6365ZM21.6178 37.8972C24.8205 37.8972 27.8059 37.0063 30.5093 35.257L27.2498 30.2196C25.5046 31.3489 23.6488 31.8972 21.6178 31.8972V37.8972ZM27.4226 35.3608L28.0114 35.6879L30.9252 30.4429L30.3364 30.1158L27.4226 35.3608ZM26.4812 32.7875L25.9578 38.4137L31.932 38.9695L32.4554 33.3433L26.4812 32.7875ZM27.6999 35.9621C25.5924 36.9235 23.3835 37.4212 21.0469 37.4583L21.1421 43.4576C24.3008 43.4074 27.3255 42.7276 30.19 41.421L27.6999 35.9621ZM21.0945 37.4579C16.9865 37.4579 14.2958 36.2813 12.5247 34.3237L8.07547 38.3492C11.2763 41.8869 15.7819 43.4579 21.0945 43.4579V37.4579ZM12.5423 34.3434C10.7565 32.3344 9.63653 29.186 9.63653 24.4299H3.63653C3.63653 30.0538 4.95889 34.8432 8.05785 38.3295L12.5423 34.3434ZM9.63653 24.4299C9.63653 19.7322 10.8148 16.5086 12.7816 14.3451L8.34194 10.3091C5.0751 13.9026 3.63653 18.7475 3.63653 24.4299H9.63653ZM12.7816 14.3451C14.696 12.2393 17.5308 11.0093 21.7487 11.0093V5.00935C16.2843 5.00935 11.6612 6.65789 8.34194 10.3091L12.7816 14.3451ZM39.3874 6.96262L37.1891 9.00397L37.2268 9.04467L37.2661 9.08394L39.3874 6.96262ZM39.322 12L37.1289 9.95304L39.322 12ZM34.2846 12.1308L32.0863 14.1722L32.1619 14.2536L32.2433 14.3292L34.2846 12.1308ZM34.4155 7.09346L36.5368 9.21478L36.571 9.18057L36.6041 9.14528L34.4155 7.09346ZM40.0416 40V43H43.1616L43.0393 39.8824L40.0416 40ZM33.4996 40L30.5014 39.8959L30.3936 43H33.4996V40ZM33.8267 30.5794L36.8249 30.6835L36.8277 30.6012L36.8261 30.5188L33.8267 30.5794ZM33.565 17.6262L33.3258 14.6357L30.5085 14.8611L30.5656 17.6868L33.565 17.6262ZM40.1071 17.1028L43.1052 17.2093L43.2248 13.8438L39.8678 14.1124L40.1071 17.1028ZM39.6491 29.9907L36.651 29.8841L36.647 29.9962L36.6514 30.1082L39.6491 29.9907ZM36.9669 9.04673C37.2026 9.04673 37.295 9.08141 37.2954 9.08156C37.2957 9.08167 37.2914 9.08004 37.2834 9.07598C37.2754 9.07189 37.265 9.066 37.2531 9.05807C37.2278 9.04116 37.2055 9.02169 37.1891 9.00397L41.5858 4.92126C40.3127 3.55018 38.6197 3.04673 36.9669 3.04673V9.04673ZM37.2661 9.08394C37.2361 9.05389 37.2131 9.02323 37.1977 8.99803C37.1828 8.97365 37.1814 8.96473 37.1868 8.98041C37.1991 9.01634 37.2379 9.15621 37.2379 9.4486H43.2379C43.2379 7.8563 42.8166 6.14916 41.5088 4.8413L37.2661 9.08394ZM37.2379 9.4486C37.2379 9.87311 37.1341 9.94741 37.1289 9.95304L41.5152 14.047C42.7311 12.7442 43.2379 11.1175 43.2379 9.4486H37.2379ZM37.1289 9.95304C37.1287 9.95324 37.1304 9.95139 37.134 9.9483C37.1377 9.94519 37.1419 9.94193 37.1464 9.9389C37.1567 9.93203 37.1598 9.9319 37.1493 9.93594C37.128 9.94413 37.0182 9.98131 36.7706 9.98131V15.9813C38.4969 15.9813 40.2163 15.4387 41.5152 14.047L37.1289 9.95304ZM36.7706 9.98131C36.515 9.98131 36.3827 9.94646 36.3351 9.9302C36.2977 9.9174 36.3076 9.91542 36.326 9.93246L32.2433 14.3292C33.5411 15.5343 35.169 15.9813 36.7706 15.9813V9.98131ZM36.483 10.0895C36.5001 10.1078 36.4981 10.1177 36.4853 10.0803C36.469 10.0328 36.4342 9.90047 36.4342 9.64486H30.4342C30.4342 11.2465 30.8811 12.8744 32.0863 14.1722L36.483 10.0895ZM36.4342 9.64486C36.4342 9.43561 36.4663 9.33336 36.4795 9.2989C36.49 9.27159 36.5018 9.24976 36.5368 9.21478L32.2942 4.97214C31.0016 6.26468 30.4342 7.91639 30.4342 9.64486H36.4342ZM36.6041 9.14528C36.6493 9.09702 36.6714 9.08852 36.6827 9.08392C36.6999 9.07684 36.7803 9.04673 36.9669 9.04673V3.04673C35.1779 3.04673 33.5051 3.67823 32.2269 5.04164L36.6041 9.14528ZM40.0416 37H33.4996V43H40.0416V37ZM36.4978 40.1041L36.8249 30.6835L30.8285 30.4753L30.5014 39.8959L36.4978 40.1041ZM36.8261 30.5188L36.5644 17.5656L30.5656 17.6868L30.8273 30.64L36.8261 30.5188ZM33.8042 20.6166L40.3463 20.0932L39.8678 14.1124L33.3258 14.6357L33.8042 20.6166ZM37.109 16.9963L36.651 29.8841L42.6472 30.0972L43.1052 17.2093L37.109 16.9963ZM36.6514 30.1082L37.0439 40.1176L43.0393 39.8824L42.6468 29.8731L36.6514 30.1082ZM59.8726 25.8037L62.8715 25.8867L62.8726 25.8452V25.8037H59.8726ZM52.0876 24.2991L50.1552 22.0043L49.0876 22.9034V24.2991H52.0876ZM52.0876 29.9907H49.0876V30.0397L49.0892 30.0886L52.0876 29.9907ZM52.4147 40V43H55.5143L55.4131 39.902L52.4147 40ZM45.8726 40L42.8744 39.8959L42.7667 43H45.8726V40ZM46.1997 30.5794L49.1979 30.6835L49.2008 30.6012L49.1991 30.5188L46.1997 30.5794ZM45.9381 17.6262L45.6863 14.6367L42.8818 14.8729L42.9387 17.6868L45.9381 17.6262ZM52.153 17.1028H55.153V13.8396L51.9013 14.1134L52.153 17.1028ZM52.153 20.4393H49.153V23.4393H52.153V20.4393ZM52.4801 20.4393V23.4393H53.6157L54.4667 22.6872L52.4801 20.4393ZM58.368 16.9065V13.9065H57.8713L57.4012 14.0666L58.368 16.9065ZM63.9941 18.6075L61.9915 20.8412L62.0103 20.858L62.0293 20.8745L63.9941 18.6075ZM65.8913 23.4486L62.892 23.3861L62.8919 23.3886L65.8913 23.4486ZM65.7605 29.9907L62.7611 29.9307L62.7597 29.9999L62.7615 30.0691L65.7605 29.9907ZM66.0222 40V43H69.1016L69.0211 39.9216L66.0222 40ZM59.4801 40L56.4813 39.9171L56.396 43H59.4801V40ZM62.8726 25.8037C62.8726 24.2472 62.5501 22.52 61.3846 21.1562C60.142 19.702 58.4193 19.2056 56.7979 19.2056V25.2056C57.0245 25.2056 57.0889 25.2394 57.0529 25.2254C56.9987 25.2042 56.903 25.1475 56.8232 25.0541C56.7521 24.9708 56.7636 24.9404 56.7952 25.0514C56.8293 25.1709 56.8726 25.4079 56.8726 25.8037H62.8726ZM56.7979 19.2056C54.3446 19.2056 52.1104 20.3578 50.1552 22.0043L54.02 26.5938C55.3794 25.449 56.2854 25.2056 56.7979 25.2056V19.2056ZM49.0876 24.2991V29.9907H55.0876V24.2991H49.0876ZM49.0892 30.0886L49.4163 40.098L55.4131 39.902L55.086 29.8927L49.0892 30.0886ZM52.4147 37H45.8726V43H52.4147V37ZM48.8708 40.1041L49.1979 30.6835L43.2015 30.4753L42.8744 39.8959L48.8708 40.1041ZM49.1991 30.5188L48.9374 17.5656L42.9387 17.6868L43.2004 30.64L49.1991 30.5188ZM46.1898 20.6156L52.4048 20.0922L51.9013 14.1134L45.6863 14.6367L46.1898 20.6156ZM49.153 17.1028V20.4393H55.153V17.1028H49.153ZM52.153 23.4393H52.4801V17.4393H52.153V23.4393ZM54.4667 22.6872C56.0905 21.2522 57.7146 20.298 59.3348 19.7465L57.4012 14.0666C54.9217 14.9107 52.6205 16.3116 50.4935 18.1913L54.4667 22.6872ZM58.368 19.9065C60.4512 19.9065 61.4845 20.3866 61.9915 20.8412L65.9968 16.3738C63.9742 14.5604 61.2567 13.9065 58.368 13.9065V19.9065ZM62.0293 20.8745C62.5224 21.3019 62.9213 21.9788 62.892 23.3861L68.8907 23.5111C68.9486 20.7315 68.0826 18.181 65.9589 16.3404L62.0293 20.8745ZM62.8919 23.3886L62.7611 29.9307L68.7599 30.0506L68.8907 23.5086L62.8919 23.3886ZM62.7615 30.0691L63.0232 40.0784L69.0211 39.9216L68.7595 29.9122L62.7615 30.0691ZM66.0222 37H59.4801V43H66.0222V37ZM62.479 40.0829L62.8715 25.8867L56.8738 25.7208L56.4813 39.9171L62.479 40.0829ZM76.1581 29.4673L76.143 26.4673L72.9637 26.4834L73.1641 29.6564L76.1581 29.4673ZM88.7843 33.8505L90.5843 31.4505L89.0503 30.3L87.362 31.2091L88.7843 33.8505ZM89.3077 34.243L92.2612 34.769L92.585 32.951L91.1077 31.843L89.3077 34.243ZM88.4572 39.0187L89.6261 41.7816L91.1253 41.1473L91.4107 39.5447L88.4572 39.0187ZM81.588 40.5234V43.5234H81.6163L81.6446 43.5228L81.588 40.5234ZM73.1488 37.3832L75.3148 35.3075L73.1488 37.3832ZM73.1488 20.0467L70.9837 17.9701L70.9828 17.971L73.1488 20.0467ZM87.9338 19.2617L85.7544 21.3233L85.7831 21.3535L85.8125 21.383L87.9338 19.2617ZM90.0927 28.486L92.1397 30.6791L92.913 29.9574L93.0626 28.9102L90.0927 28.486ZM89.1114 29.4019L89.1266 32.4018L90.3003 32.3959L91.1584 31.595L89.1114 29.4019ZM77.9245 22.3364L75.8582 20.1615L75.8304 20.1879L75.8032 20.2151L77.9245 22.3364ZM76.289 25.8692L73.3321 25.3623L72.7112 28.9843L76.3842 28.8676L76.289 25.8692ZM84.532 25.6075L84.6272 28.606L86.8927 28.534L87.4424 26.3351L84.532 25.6075ZM84.6628 25.0841L87.5732 25.8117L87.6689 25.4292L87.6624 25.0349L84.6628 25.0841ZM73.1641 29.6564C73.3205 32.133 74.0255 34.4823 75.704 36.2155C77.4284 37.9961 79.7449 38.6822 82.1768 38.6822V32.6822C80.858 32.6822 80.296 32.3325 80.0142 32.0415C79.6864 31.703 79.2574 30.9449 79.1522 29.2782L73.1641 29.6564ZM82.1768 38.6822C84.9027 38.6822 87.5908 37.9004 90.2066 36.4919L87.362 31.2091C85.442 32.2429 83.7252 32.6822 82.1768 32.6822V38.6822ZM86.9843 36.2505L87.5077 36.643L91.1077 31.843L90.5843 31.4505L86.9843 36.2505ZM86.3541 33.717L85.5037 38.4927L91.4107 39.5447L92.2612 34.769L86.3541 33.717ZM87.2883 36.2558C85.3495 37.0761 83.4361 37.488 81.5315 37.5239L81.6446 43.5228C84.363 43.4715 87.0291 42.8803 89.6261 41.7816L87.2883 36.2558ZM81.588 37.5234C78.5698 37.5234 76.6213 36.6708 75.3148 35.3075L70.9828 39.4589C73.6888 42.2825 77.3665 43.5234 81.588 43.5234V37.5234ZM75.3148 35.3075C73.975 33.9095 73.1395 31.8508 73.1395 28.7477H67.1395C67.1395 32.9717 68.3101 36.67 70.9828 39.4589L75.3148 35.3075ZM73.1395 28.7477C73.1395 25.5897 73.9811 23.514 75.3148 22.1224L70.9828 17.971C68.304 20.7663 67.1395 24.4913 67.1395 28.7477H73.1395ZM75.3138 22.1234C76.7608 20.6149 78.5558 19.8411 80.9338 19.8411V13.8411C77.0315 13.8411 73.6365 15.2045 70.9837 17.9701L75.3138 22.1234ZM80.9338 19.8411C83.5974 19.8411 84.996 20.5215 85.7544 21.3233L90.1132 17.2001C87.8187 14.7744 84.5507 13.8411 80.9338 13.8411V19.8411ZM85.8125 21.383C86.6839 22.2544 87.289 23.5925 87.289 25.8037H93.289C93.289 22.4325 92.3239 19.4091 90.0552 17.1404L85.8125 21.383ZM87.289 25.8037C87.289 26.5258 87.2348 27.2779 87.1229 28.0617L93.0626 28.9102C93.2123 27.8623 93.289 26.8262 93.289 25.8037H87.289ZM88.0458 26.2928L87.0645 27.2087L91.1584 31.595L92.1397 30.6791L88.0458 26.2928ZM89.0963 26.4019L76.143 26.4673L76.1733 32.4673L89.1266 32.4018L89.0963 26.4019ZM81.1301 18.0935C79.1398 18.0935 77.3188 18.7739 75.8582 20.1615L79.9907 24.5114C80.2747 24.2417 80.5908 24.0935 81.1301 24.0935V18.0935ZM75.8032 20.2151C74.4142 21.6041 73.6653 23.4188 73.3321 25.3623L79.2458 26.3761C79.436 25.2666 79.7775 24.7261 80.0458 24.4578L75.8032 20.2151ZM76.3842 28.8676L84.6272 28.606L84.4368 22.609L76.1938 22.8707L76.3842 28.8676ZM87.4424 26.3351L87.5732 25.8117L81.7524 24.3565L81.6215 24.8799L87.4424 26.3351ZM87.6624 25.0349C87.6345 23.3336 87.2434 21.5149 85.9932 20.1026C84.6752 18.6137 82.87 18.0935 81.1301 18.0935V24.0935C81.4266 24.0935 81.558 24.1368 81.5824 24.1461C81.5898 24.1489 81.5437 24.1283 81.5006 24.0796C81.428 23.9976 81.6475 24.1742 81.6632 25.1333L87.6624 25.0349Z" fill="#DDC6C6" fill-opacity="0.26" mask="url(#path-1-outside-1_1_6)"/>
<mask id="path-3-outside-2_1_6" maskUnits="userSpaceOnUse" x="94" y="2" width="75" height="42" fill="black">
<rect fill="white" x="94" y="2" width="75" height="42"/>
<path d="M104.336 22.271L108.72 22.3364L114.084 22.2056L114.542 22.6636L114.084 27.5701L108.196 27.4393L104.271 27.5047L104.206 29.9907L104.467 40H97.7944L98.1869 30.5794L97.7944 8.46729H116.57L116.963 8.99065L116.505 13.9626L108.981 13.7009H104.467L104.336 22.271ZM125.899 40H119.422L119.75 30.514L119.488 6.11215L125.964 5.58878L125.572 29.9907L125.899 40ZM135.48 6.04673C136.526 6.04673 137.333 6.35202 137.9 6.96262C138.467 7.52959 138.751 8.35826 138.751 9.4486C138.751 10.4953 138.445 11.3458 137.835 12C137.224 12.6542 136.374 12.9813 135.283 12.9813C134.237 12.9813 133.408 12.6978 132.797 12.1308C132.23 11.5202 131.947 10.6916 131.947 9.64486C131.947 8.59813 132.274 7.74766 132.928 7.09346C133.582 6.39564 134.433 6.04673 135.48 6.04673ZM138.554 40H132.012L132.339 30.5794L132.078 17.6262L138.62 17.1028L138.162 29.9907L138.554 40ZM153.217 24.8224L156.292 19.5888L157.535 17.2991H163.226L156.684 28.4206L163.554 39.8037L156.684 40.2617L155.572 37.3832L152.367 32.1495L148.965 37.7103L147.853 40H142.096L148.703 28.6168L142.096 17.4299L149.03 17.0374L150.077 19.785L153.217 24.8224Z"/>
</mask>
<path d="M104.336 22.271L108.72 22.3364L114.084 22.2056L114.542 22.6636L114.084 27.5701L108.196 27.4393L104.271 27.5047L104.206 29.9907L104.467 40H97.7944L98.1869 30.5794L97.7944 8.46729H116.57L116.963 8.99065L116.505 13.9626L108.981 13.7009H104.467L104.336 22.271ZM125.899 40H119.422L119.75 30.514L119.488 6.11215L125.964 5.58878L125.572 29.9907L125.899 40ZM135.48 6.04673C136.526 6.04673 137.333 6.35202 137.9 6.96262C138.467 7.52959 138.751 8.35826 138.751 9.4486C138.751 10.4953 138.445 11.3458 137.835 12C137.224 12.6542 136.374 12.9813 135.283 12.9813C134.237 12.9813 133.408 12.6978 132.797 12.1308C132.23 11.5202 131.947 10.6916 131.947 9.64486C131.947 8.59813 132.274 7.74766 132.928 7.09346C133.582 6.39564 134.433 6.04673 135.48 6.04673ZM138.554 40H132.012L132.339 30.5794L132.078 17.6262L138.62 17.1028L138.162 29.9907L138.554 40ZM153.217 24.8224L156.292 19.5888L157.535 17.2991H163.226L156.684 28.4206L163.554 39.8037L156.684 40.2617L155.572 37.3832L152.367 32.1495L148.965 37.7103L147.853 40H142.096L148.703 28.6168L142.096 17.4299L149.03 17.0374L150.077 19.785L153.217 24.8224Z" fill="white"/>
<path d="M104.336 22.271L101.337 22.2252L101.291 25.2259L104.292 25.2707L104.336 22.271ZM108.72 22.3364L108.675 25.3361L108.734 25.337L108.793 25.3356L108.72 22.3364ZM114.084 22.2056L116.205 20.0843L115.296 19.1751L114.011 19.2065L114.084 22.2056ZM114.542 22.6636L117.529 22.9423L117.66 21.5389L116.663 20.5422L114.542 22.6636ZM114.084 27.5701L114.017 30.5694L116.811 30.6314L117.071 27.8489L114.084 27.5701ZM108.196 27.4393L108.263 24.44L108.205 24.4387L108.146 24.4397L108.196 27.4393ZM104.271 27.5047L104.221 24.5051L101.348 24.553L101.272 27.4258L104.271 27.5047ZM104.206 29.9907L101.207 29.9117L101.205 29.9904L101.207 30.0691L104.206 29.9907ZM104.467 40V43H107.547L107.466 39.9216L104.467 40ZM97.7944 40L94.797 39.8751L94.6668 43H97.7944V40ZM98.1869 30.5794L101.184 30.7043L101.188 30.6153L101.186 30.5262L98.1869 30.5794ZM97.7944 8.46729V5.46729H94.7407L94.7949 8.52053L97.7944 8.46729ZM116.57 8.46729L118.97 6.6673L118.07 5.46729H116.57V8.46729ZM116.963 8.99065L119.95 9.26581L120.056 8.11511L119.363 7.19066L116.963 8.99065ZM116.505 13.9626L116.4 16.9608L119.232 17.0593L119.492 14.2378L116.505 13.9626ZM108.981 13.7009L109.086 10.7027L109.033 10.7009H108.981V13.7009ZM104.467 13.7009V10.7009H101.513L101.468 13.6551L104.467 13.7009ZM104.292 25.2707L108.675 25.3361L108.764 19.3368L104.381 19.2714L104.292 25.2707ZM108.793 25.3356L114.157 25.2047L114.011 19.2065L108.646 19.3373L108.793 25.3356ZM111.963 24.3269L112.421 24.7849L116.663 20.5422L116.205 20.0843L111.963 24.3269ZM111.555 22.3848L111.097 27.2913L117.071 27.8489L117.529 22.9423L111.555 22.3848ZM114.151 24.5708L108.263 24.44L108.13 30.4385L114.017 30.5694L114.151 24.5708ZM108.146 24.4397L104.221 24.5051L104.321 30.5043L108.246 30.4388L108.146 24.4397ZM101.272 27.4258L101.207 29.9117L107.205 30.0696L107.27 27.5836L101.272 27.4258ZM101.207 30.0691L101.468 40.0784L107.466 39.9216L107.205 29.9122L101.207 30.0691ZM104.467 37H97.7944V43H104.467V37ZM100.792 40.1249L101.184 30.7043L95.1895 30.4545L94.797 39.8751L100.792 40.1249ZM101.186 30.5262L100.794 8.41404L94.7949 8.52053L95.1874 30.6327L101.186 30.5262ZM97.7944 11.4673H116.57V5.46729H97.7944V11.4673ZM114.17 10.2673L114.563 10.7906L119.363 7.19066L118.97 6.6673L114.17 10.2673ZM113.975 8.7155L113.517 13.6875L119.492 14.2378L119.95 9.26581L113.975 8.7155ZM116.609 10.9644L109.086 10.7027L108.877 16.6991L116.4 16.9608L116.609 10.9644ZM108.981 10.7009H104.467V16.7009H108.981V10.7009ZM101.468 13.6551L101.337 22.2252L107.336 22.3168L107.467 13.7467L101.468 13.6551ZM125.899 40V43H128.999L128.897 39.902L125.899 40ZM119.422 40L116.424 39.8966L116.317 43H119.422V40ZM119.75 30.514L122.748 30.6174L122.75 30.5496L122.749 30.4818L119.75 30.514ZM119.488 6.11215L119.246 3.1219L116.458 3.3472L116.488 6.14432L119.488 6.11215ZM125.964 5.58878L128.964 5.63703L129.017 2.33232L125.723 2.59853L125.964 5.58878ZM125.572 29.9907L122.572 29.9424L122.571 30.0155L122.574 30.0886L125.572 29.9907ZM125.899 37H119.422V43H125.899V37ZM122.421 40.1034L122.748 30.6174L116.751 30.4106L116.424 39.8966L122.421 40.1034ZM122.749 30.4818L122.488 6.07998L116.488 6.14432L116.75 30.5462L122.749 30.4818ZM119.729 9.1024L126.206 8.57904L125.723 2.59853L119.246 3.1219L119.729 9.1024ZM122.965 5.54053L122.572 29.9424L128.572 30.0389L128.964 5.63703L122.965 5.54053ZM122.574 30.0886L122.901 40.098L128.897 39.902L128.57 29.8927L122.574 30.0886ZM137.9 6.96262L135.702 9.00397L135.74 9.04467L135.779 9.08394L137.9 6.96262ZM137.835 12L135.642 9.95304L137.835 12ZM132.797 12.1308L130.599 14.1722L130.675 14.2536L130.756 14.3292L132.797 12.1308ZM132.928 7.09346L135.049 9.21478L135.084 9.18057L135.117 9.14528L132.928 7.09346ZM138.554 40V43H141.674L141.552 39.8824L138.554 40ZM132.012 40L129.014 39.8959L128.906 43H132.012V40ZM132.339 30.5794L135.338 30.6835L135.34 30.6012L135.339 30.5188L132.339 30.5794ZM132.078 17.6262L131.838 14.6357L129.021 14.8611L129.078 17.6868L132.078 17.6262ZM138.62 17.1028L141.618 17.2093L141.737 13.8438L138.381 14.1124L138.62 17.1028ZM138.162 29.9907L135.164 29.8841L135.16 29.9962L135.164 30.1082L138.162 29.9907ZM135.48 9.04673C135.715 9.04673 135.808 9.08141 135.808 9.08156C135.808 9.08167 135.804 9.08004 135.796 9.07598C135.788 9.07189 135.778 9.066 135.766 9.05807C135.74 9.04116 135.718 9.02169 135.702 9.00397L140.099 4.92126C138.825 3.55018 137.132 3.04673 135.48 3.04673V9.04673ZM135.779 9.08394C135.749 9.05389 135.726 9.02323 135.71 8.99803C135.696 8.97365 135.694 8.96473 135.699 8.98041C135.712 9.01634 135.751 9.15621 135.751 9.4486H141.751C141.751 7.8563 141.329 6.14916 140.021 4.8413L135.779 9.08394ZM135.751 9.4486C135.751 9.87311 135.647 9.94741 135.642 9.95304L140.028 14.047C141.244 12.7442 141.751 11.1175 141.751 9.4486H135.751ZM135.642 9.95304C135.641 9.95324 135.643 9.95139 135.647 9.9483C135.65 9.94519 135.655 9.94193 135.659 9.9389C135.669 9.93203 135.672 9.9319 135.662 9.93594C135.641 9.94413 135.531 9.98131 135.283 9.98131V15.9813C137.01 15.9813 138.729 15.4387 140.028 14.047L135.642 9.95304ZM135.283 9.98131C135.028 9.98131 134.895 9.94646 134.848 9.9302C134.81 9.9174 134.82 9.91542 134.839 9.93246L130.756 14.3292C132.054 15.5343 133.682 15.9813 135.283 15.9813V9.98131ZM134.996 10.0895C135.013 10.1078 135.011 10.1177 134.998 10.0803C134.982 10.0328 134.947 9.90047 134.947 9.64486H128.947C128.947 11.2465 129.394 12.8744 130.599 14.1722L134.996 10.0895ZM134.947 9.64486C134.947 9.43561 134.979 9.33336 134.992 9.2989C135.003 9.27159 135.015 9.24976 135.049 9.21478L130.807 4.97214C129.514 6.26468 128.947 7.91639 128.947 9.64486H134.947ZM135.117 9.14528C135.162 9.09702 135.184 9.08852 135.195 9.08392C135.213 9.07684 135.293 9.04673 135.48 9.04673V3.04673C133.691 3.04673 132.018 3.67823 130.74 5.04164L135.117 9.14528ZM138.554 37H132.012V43H138.554V37ZM135.01 40.1041L135.338 30.6835L129.341 30.4753L129.014 39.8959L135.01 40.1041ZM135.339 30.5188L135.077 17.5656L129.078 17.6868L129.34 30.64L135.339 30.5188ZM132.317 20.6166L138.859 20.0932L138.381 14.1124L131.838 14.6357L132.317 20.6166ZM135.622 16.9963L135.164 29.8841L141.16 30.0972L141.618 17.2093L135.622 16.9963ZM135.164 30.1082L135.557 40.1176L141.552 39.8824L141.16 29.8731L135.164 30.1082ZM153.217 24.8224L150.671 26.4095L153.293 30.6154L155.804 26.3421L153.217 24.8224ZM156.292 19.5888L158.879 21.1084L158.904 21.0647L158.928 21.0201L156.292 19.5888ZM157.535 17.2991V14.2991H155.75L154.898 15.8678L157.535 17.2991ZM163.226 17.2991L165.812 18.8201L168.472 14.2991H163.226V17.2991ZM156.684 28.4206L154.099 26.8995L153.192 28.4402L154.116 29.9706L156.684 28.4206ZM163.554 39.8037L163.753 42.7971L168.666 42.4696L166.122 38.2537L163.554 39.8037ZM156.684 40.2617L153.886 41.3429L154.682 43.4019L156.884 43.255L156.684 40.2617ZM155.572 37.3832L158.371 36.302L158.273 36.0482L158.131 35.8162L155.572 37.3832ZM152.367 32.1495L154.925 30.5826L152.365 26.4033L149.808 30.584L152.367 32.1495ZM148.965 37.7103L146.406 36.1447L146.33 36.2688L146.266 36.3996L148.965 37.7103ZM147.853 40V43H149.731L150.551 41.3107L147.853 40ZM142.096 40L139.501 38.494L136.885 43H142.096V40ZM148.703 28.6168L151.298 30.1229L152.18 28.6036L151.286 27.0911L148.703 28.6168ZM142.096 17.4299L141.926 14.4347L137.007 14.7132L139.513 18.9556L142.096 17.4299ZM149.03 17.0374L151.834 15.9694L151.052 13.9181L148.861 14.0422L149.03 17.0374ZM150.077 19.785L147.273 20.853L147.377 21.125L147.531 21.3721L150.077 19.785ZM155.804 26.3421L158.879 21.1084L153.705 18.0691L150.63 23.3028L155.804 26.3421ZM158.928 21.0201L160.171 18.7303L154.898 15.8678L153.655 18.1575L158.928 21.0201ZM157.535 20.2991H163.226V14.2991H157.535V20.2991ZM160.641 15.778L154.099 26.8995L159.27 29.9416L165.812 18.8201L160.641 15.778ZM154.116 29.9706L160.985 41.3537L166.122 38.2537L159.253 26.8706L154.116 29.9706ZM163.354 36.8104L156.485 37.2683L156.884 43.255L163.753 42.7971L163.354 36.8104ZM159.483 39.1805L158.371 36.302L152.774 38.4644L153.886 41.3429L159.483 39.1805ZM158.131 35.8162L154.925 30.5826L149.808 33.7165L153.014 38.9501L158.131 35.8162ZM149.808 30.584L146.406 36.1447L151.524 39.2758L154.926 33.7151L149.808 30.584ZM146.266 36.3996L145.154 38.6893L150.551 41.3107L151.663 39.021L146.266 36.3996ZM147.853 37H142.096V43H147.853V37ZM144.69 41.506L151.298 30.1229L146.109 27.1108L139.501 38.494L144.69 41.506ZM151.286 27.0911L144.679 15.9042L139.513 18.9556L146.12 30.1425L151.286 27.0911ZM142.265 20.4251L149.2 20.0326L148.861 14.0422L141.926 14.4347L142.265 20.4251ZM146.227 18.1054L147.273 20.853L152.88 18.7171L151.834 15.9694L146.227 18.1054ZM147.531 21.3721L150.671 26.4095L155.763 23.2354L152.623 18.198L147.531 21.3721Z" fill="white" fill-opacity="0.19" mask="url(#path-3-outside-2_1_6)"/>
</svg>
